<svg width="48" height="48" viewBox="0 0 48 48" fill="none" xmlns="http://www.w3.org/2000/svg">
<path d="M9.35449 0.506836C11.543 0.436339 13.7366 0.898191 15.4824 1.9082C17.2224 2.98452 18.446 4.32021 18.7422 5.80273L18.7891 6.10156C18.9324 7.89649 18.5801 9.55134 16.9414 10.9121C16.23 11.4668 15.5197 11.9607 14.6621 12.3418H13.9707V26.8369L14.5859 26.6904C16.139 26.3205 16.1411 26.3199 17.7217 25.9434C18.4034 25.8172 19.0717 25.6997 19.7539 25.5957L19.7568 25.5947C19.9343 25.5665 20.1119 25.538 20.2949 25.5088C20.8434 25.4217 21.3925 25.3355 21.9424 25.25L21.9434 25.251C24.9167 24.8929 26.4616 24.7085 27.8545 24.3018C29.2526 23.8934 30.491 23.2628 32.8613 22.0605L32.959 22.0107L33.0273 21.9248C33.5888 21.2155 33.697 20.4055 33.8096 19.7705L33.875 19.4023L33.541 19.2363C33.4166 19.1742 33.2901 19.1108 33.1621 19.0469C30.9339 17.8996 29.686 16.4579 29.2393 14.6084C28.9322 12.9069 29.5839 11.3683 31 9.8623C32.4362 8.53566 34.4806 7.74655 36.8467 7.38574C39.6013 7.22429 42.0114 7.58384 44.1846 8.77246C46.014 9.88194 47.1763 11.3084 47.4795 12.9072C47.5484 13.8852 47.4413 14.7718 47.1064 15.5957C46.7696 16.4244 46.1913 17.219 45.2764 17.9912C44.6867 18.4416 44.4301 18.6362 44.2305 18.751C44.0576 18.8504 43.9358 18.8859 43.5645 18.9873L43.498 19.0049L43.4395 19.041C43.0277 19.288 42.8146 19.6066 42.7051 19.9512C42.6545 20.1103 42.6285 20.2674 42.6094 20.4033C42.5885 20.5514 42.578 20.6514 42.5576 20.7744C42.1489 22.7988 41.2994 24.5797 39.4297 26.1406L39.4209 26.1475C39.2763 26.2736 39.2741 26.2756 39.1309 26.4004C37.2773 27.9571 34.8412 28.9431 32.1455 29.6465C29.4536 30.3489 26.5546 30.7572 23.7754 31.1924C21.3902 31.4678 20.1409 31.6115 19.0156 31.9277C17.8836 32.2458 16.884 32.7374 14.9893 33.665L14.8906 33.7129L14.8223 33.7979C14.4568 34.244 14.3577 34.6773 14.2783 35.0889L14.2061 35.4668L14.5518 35.6338L14.8701 35.7871C16.6286 36.6642 17.5482 37.5927 18.3799 38.9697C18.4324 39.0567 18.4853 39.1445 18.5391 39.2334C19.2052 40.6379 18.8928 42.3907 18.0205 43.8174C16.9351 45.3779 15.2023 46.4452 12.8408 47.1016L12.834 47.1035C12.6636 47.1535 12.6583 47.1549 12.4941 47.2031C10.3505 47.7274 7.7266 47.5204 5.66797 46.8623C3.25328 45.9822 1.79343 44.6378 0.84668 42.8926C0.20475 41.3526 0.473616 39.5502 1.50586 38.082C2.21081 37.2372 2.91141 36.5879 4.06934 36.1191L4.09375 36.1094L4.11621 36.0977C4.40157 35.9459 4.68085 35.7927 4.90137 35.5928C5.14372 35.373 5.3034 35.1097 5.39551 34.7627L5.40332 34.7363L5.40723 34.709C5.49986 34.0941 5.47912 33.4847 5.46484 32.9287C5.46581 32.7108 5.46726 32.4924 5.46973 32.2744V31.375L5.45996 30.4814C5.45303 29.866 5.45596 29.2504 5.45801 28.6289V28.6279C5.46036 27.4511 5.45342 26.2747 5.44336 25.0996C5.43237 23.7648 5.43163 22.4291 5.43164 21.0918C5.43146 18.3402 5.41884 15.5889 5.39746 12.8379L5.39355 12.457L5.02637 12.3584C4.91542 12.3286 4.80442 12.2992 4.69043 12.2686C4.02849 12.0691 3.5617 11.687 2.9375 11.2549L2.93652 11.2539L2.65625 11.0615C1.14632 9.93209 0.600868 8.47752 0.550781 6.93945L0.547852 6.63086C0.61819 4.97389 1.58701 3.47293 3.38379 2.24316C5.0269 1.17642 7.16845 0.577287 9.35449 0.506836ZM10.7666 37.25C8.91788 37.1154 7.17275 37.3215 5.78223 38.4268L5.76562 38.4404L5.74902 38.4551C5.20959 38.9677 4.85921 39.4961 4.67188 40.0781C4.48572 40.6567 4.47397 41.2496 4.55078 41.8721L4.55664 41.9219L4.57227 41.9688C4.96221 43.1388 5.83956 43.8845 7.10645 44.4463L7.11719 44.4502C8.40604 44.9867 9.86353 45.0304 11.2471 44.7969L11.2695 44.793L11.292 44.7871C12.889 44.3645 13.8287 43.6186 14.583 42.5225L14.6055 42.4893L14.6221 42.4541C15.1239 41.4021 14.9476 40.1484 14.3281 39.2041L14.3154 39.1836L14.2998 39.1641L14.1416 38.9785C13.3295 38.0722 12.2157 37.5359 10.8291 37.2588L10.7979 37.2529L10.7666 37.25ZM40.4736 10.2207C38.4128 9.60929 35.9984 9.80667 34.3916 11.1748L34.377 11.1875L34.3633 11.2012C33.5504 12.0081 32.946 13.0234 33.1221 14.1982L33.127 14.2295L33.1357 14.2598C33.4439 15.3574 34.0904 16.3089 35.3818 16.9629L35.3965 16.9697L35.4102 16.9756C36.7273 17.5422 38.026 17.7722 39.5645 17.5664L39.5801 17.5645L39.5957 17.5615C41.0565 17.2692 42.1565 16.577 42.9502 15.6436L42.9609 15.6309L42.9707 15.6172C43.6512 14.6975 43.7292 13.6795 43.4189 12.7041L43.4102 12.6758L43.3984 12.6494C42.9294 11.6121 42.1653 10.8846 40.9033 10.3623L40.8926 10.3574L40.8809 10.3535L40.4736 10.2207ZM11.2314 3.19141C9.24562 2.81793 7.32444 3.13969 5.82715 4.31152L5.81445 4.32129L5.80176 4.33301C5.23214 4.84216 4.85789 5.36512 4.66113 5.95312C4.46543 6.53808 4.46135 7.1406 4.55176 7.78027L4.55859 7.8291L4.57422 7.87598C4.95285 8.95672 5.96668 9.7641 7.08789 10.2881L7.09961 10.2939L7.1123 10.2988C8.37524 10.8094 9.66015 10.9414 11.0723 10.6992L11.0928 10.6953L11.1123 10.6904C12.4801 10.3389 13.6831 9.63208 14.4209 8.65332L14.4414 8.625L14.458 8.59473C14.9942 7.63113 15.0546 6.55134 14.627 5.55078L14.6104 5.5127L14.5879 5.47754L14.4668 5.29785C13.8436 4.40918 12.935 3.70022 11.6719 3.28711L11.6504 3.28027L11.6299 3.27539L11.2314 3.19141Z" fill="url(#paint0_linear_2064_566)" stroke="black"/>
<defs>
<linearGradient id="paint0_linear_2064_566" x1="24" y1="-2.40944e-07" x2="24" y2="47.9999" gradientUnits="userSpaceOnUse">
<stop stop-color="#FFE993"/>
<stop offset="1" stop-color="#22E3F0"/>
</linearGradient>
</defs>
</svg>
