<svg width="220" height="128" viewBox="0 0 220 128" fill="none" xmlns="http://www.w3.org/2000/svg">
<path d="M86.4313 92.1751C86.0994 92.6042 85.9052 93.0723 85.8606 93.5512C85.8159 94.0301 85.9216 94.5098 86.1714 94.9616C86.4211 95.4134 86.8097 95.8278 87.3138 96.18C87.8178 96.5321 88.4269 96.8146 89.1044 97.0106L192.531 126.827C208.988 131.57 226.05 121.039 217.898 111.169L183.225 69.1852C180.53 65.9212 180.53 62.0742 183.225 58.8173L217.898 16.8339C226.05 6.96382 208.988 -3.5747 192.531 1.17546L153.765 12.354C149.111 13.6937 145.32 16.0361 143.04 18.9814L86.4313 92.1751Z" fill="#532494"/>
<path opacity="0.5" d="M71.1292 88.1074C70.4957 88.9249 69.3992 89.5532 68.0676 89.8618C66.736 90.1703 65.2717 90.1354 63.9789 89.7642L10.9235 74.4755C-3.64117 70.28 -3.64117 57.7291 10.9235 53.5336L108.795 25.3171C109.83 25.0187 110.983 24.9342 112.095 25.0754C113.207 25.2165 114.225 25.5763 115.008 26.1055C115.792 26.6348 116.304 27.3076 116.474 28.0321C116.643 28.7565 116.463 29.4971 115.956 30.1526L71.1292 88.1074Z" fill="#532494"/>
</svg>
