<svg width="220" height="128" viewBox="0 0 220 128" fill="none" xmlns="http://www.w3.org/2000/svg">
<path d="M133.569 92.1751C133.901 92.6042 134.095 93.0723 134.139 93.5512C134.184 94.0301 134.078 94.5098 133.829 94.9616C133.579 95.4134 133.19 95.8278 132.686 96.18C132.182 96.5321 131.573 96.8146 130.896 97.0106L27.4689 126.827C11.0121 131.57 -6.04964 121.039 2.10173 111.169L36.7753 69.1852C39.4704 65.9212 39.4704 62.0742 36.7753 58.8173L2.10173 16.8339C-6.04964 6.96382 11.0121 -3.5747 27.4689 1.17546L66.2347 12.354C70.8891 13.6937 74.68 16.0361 76.9602 18.9814L133.569 92.1751Z" fill="#532494"/>
<path opacity="0.5" d="M148.871 88.1074C149.504 88.9249 150.601 89.5532 151.932 89.8618C153.264 90.1703 154.728 90.1354 156.021 89.7642L209.076 74.4755C223.641 70.28 223.641 57.7291 209.076 53.5336L111.205 25.3171C110.17 25.0187 109.017 24.9342 107.905 25.0754C106.793 25.2165 105.775 25.5763 104.992 26.1055C104.208 26.6348 103.696 27.3076 103.526 28.0321C103.357 28.7565 103.537 29.4971 104.044 30.1526L148.871 88.1074Z" fill="#532494"/>
</svg>
