<svg width="305" height="271" viewBox="0 0 305 271" fill="none" xmlns="http://www.w3.org/2000/svg">
<g filter="url(#filter0_d_2067_568)">
<g clip-path="url(#clip0_2067_568)">
<rect width="290.014" height="256" rx="38.1912" fill="#FFE44D"/>
<rect y="150.378" width="290.014" height="82.9464" fill="#D9D9D9"/>
<path d="M100.506 171.465C100.418 170.576 100.04 169.886 99.3713 169.394C98.7029 168.901 97.7958 168.655 96.65 168.655C95.8715 168.655 95.2141 168.766 94.6779 168.986C94.1418 169.199 93.7305 169.496 93.444 169.878C93.1649 170.26 93.0253 170.694 93.0253 171.178C93.0107 171.582 93.0951 171.935 93.2787 172.236C93.4697 172.537 93.7305 172.798 94.061 173.018C94.3915 173.231 94.7734 173.419 95.2068 173.58C95.6401 173.734 96.1028 173.867 96.595 173.977L98.6221 174.462C99.6064 174.682 100.51 174.976 101.332 175.343C102.155 175.71 102.867 176.162 103.47 176.698C104.072 177.234 104.538 177.866 104.869 178.593C105.207 179.32 105.379 180.154 105.387 181.094C105.379 182.475 105.027 183.672 104.329 184.686C103.639 185.692 102.64 186.474 101.332 187.032C100.032 187.583 98.4642 187.859 96.628 187.859C94.8065 187.859 93.22 187.579 91.8685 187.021C90.5244 186.463 89.4741 185.637 88.7176 184.542C87.9684 183.441 87.5754 182.078 87.5387 180.455H92.155C92.2064 181.211 92.4231 181.843 92.805 182.35C93.1943 182.849 93.7121 183.228 94.3584 183.485C95.0121 183.734 95.7503 183.859 96.5729 183.859C97.3809 183.859 98.0823 183.742 98.6772 183.507C99.2795 183.272 99.7459 182.945 100.076 182.526C100.407 182.108 100.572 181.626 100.572 181.083C100.572 180.576 100.422 180.15 100.12 179.805C99.8267 179.46 99.3934 179.166 98.8205 178.924C98.2549 178.681 97.5608 178.461 96.7382 178.262L94.2813 177.646C92.379 177.183 90.877 176.459 89.7752 175.475C88.6735 174.491 88.1263 173.165 88.1337 171.498C88.1263 170.132 88.4899 168.938 89.2244 167.917C89.9662 166.896 90.9835 166.099 92.2762 165.526C93.5689 164.954 95.0378 164.667 96.6831 164.667C98.3577 164.667 99.8194 164.954 101.068 165.526C102.324 166.099 103.301 166.896 103.999 167.917C104.696 168.938 105.056 170.121 105.078 171.465H100.506ZM117.509 170.616V174.142H107.318V170.616H117.509ZM109.631 166.562H114.325V182.339C114.325 182.772 114.391 183.11 114.523 183.352C114.655 183.588 114.839 183.753 115.074 183.848C115.316 183.944 115.595 183.991 115.911 183.991C116.131 183.991 116.352 183.973 116.572 183.936C116.792 183.892 116.961 183.859 117.079 183.837L117.817 187.33C117.582 187.403 117.252 187.488 116.825 187.583C116.399 187.686 115.882 187.748 115.272 187.77C114.141 187.814 113.149 187.664 112.297 187.319C111.453 186.974 110.795 186.437 110.325 185.71C109.855 184.983 109.624 184.065 109.631 182.956V166.562ZM125.391 187.859C124.312 187.859 123.35 187.671 122.505 187.297C121.66 186.915 120.992 186.353 120.5 185.611C120.015 184.862 119.773 183.929 119.773 182.813C119.773 181.872 119.945 181.083 120.29 180.444C120.636 179.805 121.106 179.291 121.701 178.901C122.296 178.512 122.971 178.218 123.728 178.02C124.492 177.822 125.292 177.682 126.13 177.601C127.114 177.499 127.907 177.403 128.509 177.315C129.112 177.22 129.549 177.08 129.82 176.896C130.092 176.713 130.228 176.441 130.228 176.081V176.015C130.228 175.317 130.008 174.777 129.567 174.395C129.134 174.013 128.517 173.823 127.716 173.823C126.871 173.823 126.199 174.01 125.7 174.384C125.2 174.752 124.87 175.214 124.708 175.773L120.368 175.42C120.588 174.392 121.021 173.503 121.668 172.754C122.314 171.997 123.148 171.417 124.169 171.013C125.197 170.602 126.387 170.396 127.738 170.396C128.678 170.396 129.578 170.506 130.437 170.727C131.304 170.947 132.072 171.289 132.74 171.751C133.416 172.214 133.948 172.809 134.338 173.536C134.727 174.256 134.921 175.119 134.921 176.125V187.539H130.47V185.192H130.338C130.066 185.721 129.703 186.188 129.248 186.592C128.792 186.988 128.245 187.3 127.606 187.528C126.967 187.748 126.229 187.859 125.391 187.859ZM126.736 184.619C127.426 184.619 128.036 184.484 128.564 184.212C129.093 183.933 129.508 183.558 129.809 183.088C130.111 182.618 130.261 182.085 130.261 181.491V179.695C130.114 179.79 129.912 179.878 129.655 179.959C129.405 180.033 129.123 180.102 128.807 180.168C128.491 180.227 128.175 180.282 127.859 180.334C127.544 180.378 127.257 180.418 127 180.455C126.449 180.536 125.968 180.664 125.557 180.841C125.145 181.017 124.826 181.256 124.598 181.557C124.371 181.85 124.257 182.218 124.257 182.658C124.257 183.297 124.488 183.786 124.951 184.124C125.421 184.454 126.016 184.619 126.736 184.619ZM146.187 194.238C144.666 194.238 143.363 194.028 142.275 193.61C141.196 193.198 140.336 192.636 139.697 191.924C139.058 191.212 138.643 190.411 138.452 189.522L142.793 188.938C142.926 189.276 143.135 189.592 143.421 189.886C143.708 190.18 144.086 190.415 144.556 190.591C145.033 190.774 145.614 190.866 146.297 190.866C147.318 190.866 148.159 190.617 148.82 190.117C149.488 189.625 149.822 188.799 149.822 187.638V184.542H149.624C149.418 185.012 149.11 185.457 148.699 185.875C148.287 186.294 147.758 186.636 147.112 186.9C146.466 187.164 145.695 187.297 144.798 187.297C143.528 187.297 142.371 187.003 141.328 186.415C140.292 185.82 139.466 184.913 138.849 183.694C138.239 182.467 137.935 180.918 137.935 179.045C137.935 177.128 138.247 175.527 138.871 174.241C139.495 172.956 140.325 171.994 141.361 171.355C142.404 170.716 143.546 170.396 144.787 170.396C145.735 170.396 146.528 170.558 147.167 170.881C147.806 171.197 148.32 171.593 148.71 172.071C149.106 172.541 149.411 173.004 149.624 173.459H149.8V170.616H154.461V187.704C154.461 189.144 154.108 190.348 153.403 191.318C152.698 192.288 151.721 193.015 150.472 193.499C149.231 193.992 147.803 194.238 146.187 194.238ZM146.286 183.771C147.042 183.771 147.681 183.584 148.203 183.209C148.732 182.827 149.136 182.284 149.415 181.579C149.701 180.866 149.844 180.014 149.844 179.023C149.844 178.031 149.705 177.172 149.426 176.445C149.147 175.71 148.743 175.141 148.214 174.737C147.685 174.333 147.042 174.131 146.286 174.131C145.515 174.131 144.865 174.34 144.336 174.759C143.807 175.17 143.407 175.743 143.135 176.478C142.863 177.212 142.727 178.06 142.727 179.023C142.727 180 142.863 180.844 143.135 181.557C143.414 182.262 143.814 182.809 144.336 183.198C144.865 183.58 145.515 183.771 146.286 183.771ZM158.196 187.539V170.616H162.889V187.539H158.196ZM160.553 168.435C159.855 168.435 159.257 168.204 158.757 167.741C158.265 167.271 158.019 166.709 158.019 166.055C158.019 165.409 158.265 164.854 158.757 164.392C159.257 163.922 159.855 163.687 160.553 163.687C161.251 163.687 161.846 163.922 162.338 164.392C162.837 164.854 163.087 165.409 163.087 166.055C163.087 166.709 162.837 167.271 162.338 167.741C161.846 168.204 161.251 168.435 160.553 168.435ZM171.342 177.756V187.539H166.649V170.616H171.122V173.602H171.32C171.694 172.618 172.322 171.839 173.204 171.266C174.085 170.686 175.154 170.396 176.41 170.396C177.585 170.396 178.61 170.653 179.484 171.167C180.358 171.681 181.037 172.416 181.522 173.371C182.007 174.318 182.249 175.449 182.249 176.764V187.539H177.556V177.601C177.563 176.566 177.299 175.758 176.762 175.178C176.226 174.59 175.488 174.296 174.548 174.296C173.916 174.296 173.358 174.432 172.873 174.704C172.396 174.976 172.021 175.372 171.75 175.894C171.485 176.408 171.349 177.029 171.342 177.756ZM193.572 194.238C192.052 194.238 190.748 194.028 189.661 193.61C188.581 193.198 187.722 192.636 187.083 191.924C186.444 191.212 186.029 190.411 185.838 189.522L190.179 188.938C190.311 189.276 190.52 189.592 190.807 189.886C191.093 190.18 191.471 190.415 191.942 190.591C192.419 190.774 192.999 190.866 193.682 190.866C194.703 190.866 195.544 190.617 196.205 190.117C196.874 189.625 197.208 188.799 197.208 187.638V184.542H197.01C196.804 185.012 196.495 185.457 196.084 185.875C195.673 186.294 195.144 186.636 194.498 186.9C193.851 187.164 193.08 187.297 192.184 187.297C190.913 187.297 189.756 187.003 188.713 186.415C187.678 185.82 186.852 184.913 186.235 183.694C185.625 182.467 185.32 180.918 185.32 179.045C185.32 177.128 185.632 175.527 186.257 174.241C186.881 172.956 187.711 171.994 188.747 171.355C189.789 170.716 190.932 170.396 192.173 170.396C193.12 170.396 193.914 170.558 194.553 170.881C195.192 171.197 195.706 171.593 196.095 172.071C196.492 172.541 196.797 173.004 197.01 173.459H197.186V170.616H201.846V187.704C201.846 189.144 201.494 190.348 200.788 191.318C200.083 192.288 199.106 193.015 197.858 193.499C196.617 193.992 195.188 194.238 193.572 194.238ZM193.671 183.771C194.428 183.771 195.067 183.584 195.588 183.209C196.117 182.827 196.521 182.284 196.8 181.579C197.087 180.866 197.23 180.014 197.23 179.023C197.23 178.031 197.09 177.172 196.811 176.445C196.532 175.71 196.128 175.141 195.599 174.737C195.07 174.333 194.428 174.131 193.671 174.131C192.9 174.131 192.25 174.34 191.721 174.759C191.192 175.17 190.792 175.743 190.52 176.478C190.249 177.212 190.113 178.06 190.113 179.023C190.113 180 190.249 180.844 190.52 181.557C190.799 182.262 191.2 182.809 191.721 183.198C192.25 183.58 192.9 183.771 193.671 183.771ZM115.03 225.539H109.918L117.707 202.976H123.855L131.633 225.539H126.521L120.869 208.132H120.693L115.03 225.539ZM114.71 216.67H126.785V220.394H114.71V216.67ZM134.26 225.539V208.616H138.811V211.569H138.987C139.295 210.519 139.813 209.726 140.54 209.189C141.267 208.646 142.105 208.374 143.052 208.374C143.287 208.374 143.541 208.389 143.812 208.418C144.084 208.448 144.323 208.488 144.529 208.539V212.704C144.308 212.638 144.003 212.579 143.614 212.528C143.225 212.476 142.869 212.45 142.545 212.45C141.855 212.45 141.238 212.601 140.695 212.902C140.158 213.196 139.732 213.607 139.416 214.136C139.108 214.665 138.954 215.275 138.954 215.965V225.539H134.26ZM153.879 225.87C152.139 225.87 150.64 225.517 149.384 224.812C148.136 224.099 147.174 223.093 146.498 221.793C145.822 220.486 145.484 218.94 145.484 217.155C145.484 215.414 145.822 213.886 146.498 212.572C147.174 211.257 148.125 210.232 149.351 209.498C150.585 208.763 152.032 208.396 153.692 208.396C154.809 208.396 155.848 208.576 156.81 208.936C157.78 209.289 158.624 209.821 159.344 210.533C160.071 211.246 160.637 212.142 161.041 213.222C161.445 214.294 161.647 215.55 161.647 216.99V218.279H147.357V215.37H157.229C157.229 214.694 157.082 214.096 156.788 213.574C156.494 213.053 156.087 212.645 155.565 212.351C155.051 212.05 154.452 211.9 153.769 211.9C153.057 211.9 152.425 212.065 151.874 212.395C151.331 212.719 150.905 213.156 150.596 213.706C150.288 214.25 150.13 214.856 150.123 215.524V218.29C150.123 219.127 150.277 219.85 150.585 220.46C150.901 221.07 151.345 221.54 151.918 221.87C152.491 222.201 153.171 222.366 153.957 222.366C154.478 222.366 154.956 222.293 155.389 222.146C155.822 221.999 156.193 221.778 156.502 221.485C156.81 221.191 157.045 220.831 157.207 220.405L161.548 220.691C161.327 221.734 160.875 222.645 160.192 223.424C159.517 224.195 158.643 224.797 157.57 225.231C156.505 225.657 155.275 225.87 153.879 225.87ZM169.535 225.859C168.455 225.859 167.493 225.671 166.649 225.297C165.804 224.915 165.136 224.353 164.643 223.611C164.159 222.862 163.916 221.929 163.916 220.813C163.916 219.872 164.089 219.083 164.434 218.444C164.779 217.805 165.249 217.291 165.844 216.901C166.439 216.512 167.115 216.218 167.871 216.02C168.635 215.822 169.436 215.682 170.273 215.601C171.257 215.499 172.051 215.403 172.653 215.315C173.255 215.22 173.692 215.08 173.964 214.896C174.236 214.713 174.372 214.441 174.372 214.081V214.015C174.372 213.317 174.151 212.777 173.711 212.395C173.277 212.013 172.66 211.823 171.86 211.823C171.015 211.823 170.343 212.01 169.844 212.384C169.344 212.752 169.014 213.214 168.852 213.773L164.511 213.42C164.732 212.392 165.165 211.503 165.811 210.754C166.458 209.997 167.291 209.417 168.312 209.013C169.34 208.602 170.53 208.396 171.882 208.396C172.822 208.396 173.722 208.506 174.581 208.727C175.448 208.947 176.215 209.289 176.884 209.751C177.559 210.214 178.092 210.809 178.481 211.536C178.87 212.256 179.065 213.119 179.065 214.125V225.539H174.614V223.192H174.482C174.21 223.721 173.847 224.188 173.391 224.592C172.936 224.988 172.389 225.3 171.75 225.528C171.111 225.748 170.372 225.859 169.535 225.859ZM170.879 222.619C171.57 222.619 172.179 222.484 172.708 222.212C173.237 221.933 173.652 221.558 173.953 221.088C174.254 220.618 174.405 220.085 174.405 219.491V217.695C174.258 217.79 174.056 217.878 173.799 217.959C173.549 218.033 173.266 218.102 172.95 218.168C172.635 218.227 172.319 218.282 172.003 218.334C171.687 218.378 171.401 218.418 171.144 218.455C170.593 218.536 170.112 218.664 169.7 218.841C169.289 219.017 168.97 219.256 168.742 219.557C168.514 219.85 168.4 220.218 168.4 220.658C168.4 221.297 168.632 221.786 169.094 222.124C169.564 222.454 170.159 222.619 170.879 222.619Z" fill="black"/>
<path d="M145.625 46.2769C145.625 50.2779 148.852 53.4651 152.76 54.2887C161.316 56.1086 168.987 60.813 174.489 67.6142C179.99 74.4153 182.988 82.9002 182.98 91.6478C182.98 112.73 165.928 129.821 144.894 129.821C138.161 129.83 131.546 128.044 125.732 124.645C122.243 122.603 117.643 122.832 114.977 125.878L111.108 130.293C108.432 133.339 108.715 138.023 112.063 140.298C121.745 146.882 133.186 150.394 144.894 150.377C177.254 150.377 203.487 124.085 203.487 91.6478C203.487 61.974 181.532 37.4415 153.018 33.4795C148.978 32.9142 145.625 36.2622 145.625 40.3558V46.2769ZM96.3218 108.349C92.4231 109.665 90.2983 113.88 92.1015 117.54C93.3458 120.064 94.7607 122.488 96.3462 124.811C98.6513 128.188 103.408 128.476 106.507 125.795L110.995 121.911C114.095 119.226 114.339 114.592 112.263 111.073L112.092 110.781C110.05 107.242 105.869 105.137 101.97 106.448L96.3218 108.349ZM94.7526 101.604C90.8198 102.394 86.9552 99.8058 86.6726 95.7658C86.4776 92.9815 86.4776 90.1971 86.6726 87.4128C86.9552 83.3728 90.8198 80.7851 94.7526 81.5746L100.445 82.7101C104.377 83.4995 106.858 87.3739 106.838 91.4236V91.755C106.858 95.8047 104.377 99.6791 100.445 100.464L94.7526 101.604Z" fill="#532494"/>
</g>
<rect x="2.38695" y="2.38695" width="285.24" height="251.226" rx="35.8042" stroke="black" stroke-width="4.77389"/>
</g>
<defs>
<filter id="filter0_d_2067_568" x="0" y="0" width="304.335" height="270.322" filterUnits="userSpaceOnUse" color-interpolation-filters="sRGB">
<feFlood flood-opacity="0" result="BackgroundImageFix"/>
<feColorMatrix in="SourceAlpha" type="matrix" values="0 0 0 0 0 0 0 0 0 0 0 0 0 0 0 0 0 0 127 0" result="hardAlpha"/>
<feOffset dx="14.3217" dy="14.3217"/>
<feComposite in2="hardAlpha" operator="out"/>
<feColorMatrix type="matrix" values="0 0 0 0 0 0 0 0 0 0 0 0 0 0 0 0 0 0 0.25 0"/>
<feBlend mode="normal" in2="BackgroundImageFix" result="effect1_dropShadow_2067_568"/>
<feBlend mode="normal" in="SourceGraphic" in2="effect1_dropShadow_2067_568" result="shape"/>
</filter>
<clipPath id="clip0_2067_568">
<rect width="290.014" height="256" rx="38.1912" fill="white"/>
</clipPath>
</defs>
</svg>
